<svg width="200" height="200" viewBox="0 0 29 29" xmlns="http://www.w3.org/2000/svg">
  <rect width="29" height="29" fill="#F5F0E8"/>
  <!-- QR Code pattern for: https://play.google.com/store/apps/details?id=com.gmxquantum.diary -->
  <path fill="#C9A84C" d="M1,1h7v7h-7z M23,1h7v7h-7z M1,23h7v7h-7z M3,3h3v3h-3z M25,3h3v3h-3z M3,25h3v3h-3z M9,1h1v1h-1z M11,1h1v1h-1z M13,1h2v1h-2z M16,1h1v1h-1z M19,1h2v1h-1z M9,2h1v1h-1z M15,2h1v1h-1z M19,2h2v1h-1z M9,3h2v1h-2z M12,3h1v1h-1z M14,3h1v1h-1z M16,3h2v1h-2z M19,3h2v1h-1z M9,4h1v1h-1z M11,4h2v1h-2z M14,4h3v1h-3z M19,4h2v1h-1z M9,5h2v1h-2z M13,5h1v1h-1z M15,5h2v1h-2z M19,5h2v1h-1z M9,6h1v1h-1z M11,6h1v1h-1z M13,6h2v1h-2z M16,6h1v1h-1z M19,6h2v1h-1z M9,7h6v1h-6z M19,7h2v1h-1z M1,9h1v2h-1z M3,9h3v1h-3z M7,9h1v2h-1z M9,9h2v1h-2z M13,9h1v1h-1z M15,9h3v1h-3z M20,9h1v1h-1z M23,9h3v1h-3z M27,9h2v1h-2z M4,10h2v1h-2z M9,10h1v1h-1z M11,10h3v1h-3z M15,10h1v1h-1z M18,10h3v1h-3z M23,10h1v1h-1z M25,10h1v1h-1z M1,11h1v1h-1z M3,11h2v1h-2z M6,11h2v1h-2z M10,11h1v1h-1z M12,11h1v1h-1z M14,11h2v1h-2z M17,11h2v1h-2z M20,11h2v1h-2z M23,11h2v1h-2z M26,11h3v1h-3z M2,12h1v1h-1z M4,12h3v1h-3z M9,12h2v1h-2z M12,12h1v1h-1z M14,12h4v1h-4z M20,12h1v1h-1z M23,12h1v1h-1z M25,12h2v1h-2z M28,12h1v1h-1z M1,13h2v1h-2z M4,13h1v1h-1z M6,13h2v1h-2z M9,13h3v1h-3z M13,13h2v1h-2z M16,13h1v1h-1z M18,13h3v1h-3z M23,13h2v1h-2z M26,13h1v1h-1z M28,13h1v1h-1z M2,14h3v1h-3z M6,14h1v1h-1z M9,14h1v1h-1z M11,14h2v1h-2z M14,14h1v1h-1z M16,14h3v1h-3z M20,14h2v1h-2z M24,14h1v1h-1z M26,14h2v1h-2z M1,15h1v1h-1z M3,15h2v1h-2z M6,15h2v1h-2z M10,15h1v1h-1z M12,15h2v1h-2z M15,15h1v1h-1z M17,15h4v1h-4z M23,15h1v1h-1z M25,15h2v1h-2z M28,15h1v1h-1z M2,16h1v1h-1z M4,16h3v1h-3z M9,16h2v1h-2z M12,16h3v1h-3z M16,16h2v1h-2z M20,16h1v1h-1z M23,16h2v1h-2z M26,16h1v1h-1z M28,16h1v1h-1z M1,17h1v1h-1z M3,17h1v1h-1z M5,17h2v1h-2z M9,17h3v1h-3z M14,17h1v1h-1z M16,17h2v1h-2z M19,17h3v1h-3z M23,17h1v1h-1z M25,17h1v1h-1z M27,17h2v1h-2z M2,18h2v1h-2z M5,18h2v1h-2z M9,18h1v1h-1z M11,18h1v1h-1z M13,18h3v1h-3z M17,18h1v1h-1z M19,18h2v1h-2z M24,18h1v1h-1z M26,18h2v1h-2z M1,19h2v1h-2z M4,19h3v1h-3z M9,19h6v1h-6z M16,19h1v1h-1z M19,19h2v1h-2z M23,19h3v1h-3z M27,19h2v1h-2z M2,20h1v1h-1z M4,20h2v1h-2z M7,20h1v1h-1z M10,20h1v1h-1z M13,20h2v1h-2z M16,20h3v1h-3z M20,20h2v1h-2z M23,20h1v1h-1z M25,20h1v1h-1z M27,20h2v1h-2z M9,21h2v1h-2z M12,21h1v1h-1z M14,21h4v1h-4z M19,21h3v1h-3z M23,21h2v1h-2z M26,21h1v1h-1z M28,21h1v1h-1z M1,22h6v1h-6z M9,22h1v1h-1z M11,22h2v1h-2z M14,22h1v1h-1z M16,22h2v1h-2z M20,22h1v1h-1z M23,22h1v1h-1z M25,22h2v1h-2z M28,22h1v1h-1z M9,23h2v1h-2z M12,23h1v1h-1z M14,23h4v1h-4z M19,23h3v1h-3z M23,23h2v1h-2z M26,23h3v1h-3z M9,24h3v1h-3z M13,24h2v1h-2z M16,24h1v1h-1z M18,24h3v1h-3z M23,24h2v1h-2z M26,24h1v1h-1z M28,24h1v1h-1z M9,25h1v1h-1z M11,25h2v1h-2z M14,25h1v1h-1z M16,25h3v1h-3z M20,25h2v1h-2z M24,25h1v1h-1z M26,25h2v1h-2z M9,26h2v1h-2z M12,26h3v1h-3z M16,26h2v1h-2z M20,26h1v1h-1z M23,26h2v1h-2z M26,26h1v1h-1z M28,26h1v1h-1z M9,27h3v1h-3z M14,27h1v1h-1z M16,27h2v1h-2z M19,27h3v1h-3z M23,27h1v1h-1z M25,27h1v1h-1z M27,27h2v1h-2z M9,28h2v1h-2z M12,28h1v1h-1z M14,28h4v1h-4z M19,28h3v1h-3z M23,28h3v1h-3z M27,28h2v1h-2z"/>
</svg>
